<svg width="2560" height="1440" viewBox="0 0 2560 1440" fill="none" xmlns="http://www.w3.org/2000/svg">
<g clip-path="url(#clip0_4654_6127)">
<rect width="2560" height="1440" fill="#F6F6F6"/>
<g clip-path="url(#clip1_4654_6127)">
<rect width="2560" height="1440" transform="translate(-0.111328)" fill="#F6F6F6"/>
<rect width="4325.27" height="2432.97" transform="matrix(1 0 0 -1 -1765.11 2432.97)" fill="url(#paint0_linear_4654_6127)"/>
<rect opacity="0.6" width="8404.8" height="8050.72" rx="4025.36" transform="matrix(0.294695 0.955591 0.945892 -0.324482 -2157.61 1046.07)" fill="url(#paint1_linear_4654_6127)"/>
<rect opacity="0.6" width="6354.1" height="6434.79" rx="3177.05" transform="matrix(0.770184 0.637822 0.597166 -0.802117 -1479.87 4310.03)" fill="url(#paint2_linear_4654_6127)"/>
<rect width="5155.21" height="4974.26" rx="2487.13" transform="matrix(0.387523 -0.92186 -0.905857 -0.423584 4268.06 7319.41)" fill="url(#paint3_linear_4654_6127)"/>
</g>
</g>
<defs>
<linearGradient id="paint0_linear_4654_6127" x1="230.053" y1="300.297" x2="7098.94" y2="1952.89" gradientUnits="userSpaceOnUse">
<stop stop-color="#E8E8E8"/>
<stop offset="1" stop-color="#FFFEFA"/>
</linearGradient>
<linearGradient id="paint1_linear_4654_6127" x1="1222.95" y1="6753.72" x2="1661.59" y2="1636.81" gradientUnits="userSpaceOnUse">
<stop stop-color="#F6F6F6"/>
<stop offset="0.452455" stop-color="#FBFBFB"/>
<stop offset="1" stop-color="#F1F1F1"/>
</linearGradient>
<linearGradient id="paint2_linear_4654_6127" x1="3872.77" y1="7347.08" x2="1272.35" y2="936.794" gradientUnits="userSpaceOnUse">
<stop stop-color="#D7D7D7"/>
<stop offset="0.104737" stop-color="#D7D7D7"/>
<stop offset="0.533834" stop-color="#FBFBFB"/>
</linearGradient>
<linearGradient id="paint3_linear_4654_6127" x1="6065.14" y1="1986.04" x2="2192.76" y2="4666.58" gradientUnits="userSpaceOnUse">
<stop offset="0.317105" stop-color="#FFFEFA"/>
<stop offset="0.726797" stop-color="#F4F4F4"/>
<stop offset="0.802083" stop-color="#E1E1E1"/>
<stop offset="0.963088" stop-color="#E1E1E1"/>
</linearGradient>
<clipPath id="clip0_4654_6127">
<rect width="2560" height="1440" fill="white"/>
</clipPath>
<clipPath id="clip1_4654_6127">
<rect width="2560" height="1440" fill="white" transform="translate(-0.111328)"/>
</clipPath>
</defs>
</svg>
